<svg width="2139" height="2198" xmlns="http://www.w3.org/2000/svg" xmlns:xlink="http://www.w3.org/1999/xlink" xml:space="preserve" overflow="hidden"><g transform="translate(-1138 -144)"><path d="M1154.5 1621.5 1353.96 1272.5 1762.04 1272.5 1961.5 1621.5 1762.04 1970.5 1353.96 1970.5 1154.5 1621.5Z" stroke="#002060" stroke-width="11.4583" stroke-miterlimit="8" fill="#FFFFFF" fill-rule="evenodd"/><text font-family="Lato Black,Lato Black_MSFontService,sans-serif" font-weight="900" font-size="73" transform="matrix(1 0 0 1 1536.56 1606)">5</text><text font-family="Lato Black,Lato Black_MSFontService,sans-serif" font-weight="900" font-size="73" transform="matrix(1 0 0 1 1266.15 1716)">Desenvolvimento </text><text font-family="Lato Black,Lato Black_MSFontService,sans-serif" font-weight="900" font-size="73" transform="matrix(1 0 0 1 1434.59 1795)">pessoal</text><g><g><g><path d="M97.4998 59.227C102.102 59.227 105.833 55.496 105.833 50.8937 105.833 46.2914 102.102 42.5604 97.4998 42.5604 92.8976 42.5604 89.1665 46.2914 89.1665 50.8937 89.1938 55.4847 92.9088 59.1997 97.4998 59.227ZM97.4998 46.727C99.8011 46.727 101.667 48.5924 101.667 50.8937 101.667 53.1949 99.8011 55.0603 97.4998 55.0603 95.1986 55.0603 93.3332 53.1949 93.3332 50.8937 93.3624 48.6047 95.2109 46.7562 97.4998 46.727Z" stroke="#002060" stroke-width="2.08333" fill="#002060" transform="matrix(1 0 0 1 1458 1324)"/><path d="M72.4999 99.504C77.1022 99.504 80.8332 95.773 80.8332 91.1707 80.8332 86.5684 77.1022 82.8374 72.4999 82.8374 67.8976 82.8374 64.1666 86.5684 64.1666 91.1707 64.1666 95.773 67.8976 99.504 72.4999 99.504ZM72.4999 87.004C74.8011 87.004 76.6665 88.8694 76.6665 91.1707 76.6665 93.4719 74.8011 95.3374 72.4999 95.3374 70.1986 95.3374 68.3332 93.4719 68.3332 91.1707 68.3332 88.8694 70.1986 87.004 72.4999 87.004Z" stroke="#002060" stroke-width="2.08333" fill="#002060" transform="matrix(1 0 0 1 1458 1324)"/><path d="M55.6457 100.298 53.8603 105.456 57.8187 109.425 62.977 107.837C64.3439 108.635 65.8168 109.237 67.352 109.623L69.7291 114.583 75.2832 114.583 77.4665 109.821C79.0018 109.435 80.4745 108.833 81.8415 108.035L86.9978 109.821 90.9561 105.862 89.3749 100.694C90.1717 99.3296 90.7726 97.8605 91.1603 96.329L96.1186 93.9478 96.3165 87.9957 91.3519 85.6249C90.9649 84.0901 90.3638 82.6172 89.5665 81.2499L91.3519 76.0915 87.3936 72.1228 82.2353 73.9082C80.8711 73.1118 79.402 72.5107 77.8707 72.1228L75.4916 67.1624 69.7291 67.1624 67.3499 72.1228C65.8151 72.5099 64.3422 73.1109 62.9749 73.9082L57.8166 72.1228 53.8582 76.0915 55.6457 81.2499C54.8485 82.6136 54.2474 84.083 53.8603 85.6145L48.902 87.9957 48.902 93.5519 53.8603 95.9332C54.2474 97.4646 54.8485 98.934 55.6457 100.298ZM53.0687 90.6249 55.6645 89.3749 57.4291 88.529 57.902 86.629C58.1962 85.467 58.6549 84.3528 59.2645 83.3207L60.202 81.679 59.577 79.8915 58.6437 77.1978 58.9228 76.9186 61.6166 77.8499 63.4041 78.4749 65.0457 77.5374C66.078 76.9282 67.1922 76.4695 68.3541 76.1749L70.252 75.6999 71.0999 73.9353 72.3499 71.3395 72.8582 71.3395 74.1082 73.9353 74.9561 75.6999 76.854 76.1749C78.0159 76.4695 79.1301 76.9282 80.1624 77.5374L81.804 78.4749 83.5915 77.8499 86.2853 76.9186 86.5624 77.1978 85.6249 79.8874 84.9999 81.6749 85.9374 83.3165C86.5457 84.3493 87.0044 85.4632 87.2999 86.6249L87.7728 88.5249 89.5374 89.3707 92.0374 90.5749 92.0144 91.2853 89.3311 92.5728 87.5665 93.4207 87.0915 95.3186C86.7986 96.4807 86.3405 97.5948 85.7311 98.6269L84.8353 100.194 85.3665 101.919 86.2165 104.681 85.8665 105.031 83.1749 104.098 81.3874 103.473 79.7436 104.412C78.7118 105.02 77.5984 105.478 76.4374 105.773L74.4936 106.258 73.6603 108.079 72.6103 110.416 72.352 110.416 71.102 107.821 70.2541 106.056 68.3561 105.581C67.1941 105.287 66.0799 104.828 65.0478 104.219L63.4812 103.323 61.7562 103.854 58.9957 104.704 58.6457 104.354 59.5832 101.667 60.2082 99.879 59.2707 98.2374C58.6616 97.2051 58.2028 96.0909 57.9082 94.929L57.4353 93.029 55.6707 92.1832 53.0749 90.9332Z" stroke="#002060" stroke-width="2.08333" fill="#002060" transform="matrix(1 0 0 1 1458 1324)"/><path d="M80.4415 60.2187 78.6561 65.377 82.6145 69.3457 87.7728 67.5603C89.1369 68.3568 90.6061 68.9578 92.1374 69.3457L94.5165 74.3061 100.071 74.3061 102.452 69.5436C103.987 69.1566 105.46 68.5555 106.827 67.7582L111.983 69.5436 115.952 65.5749 114.166 60.4166C115.026 59.0601 115.693 57.5914 116.15 56.052L121.108 53.6707 121.108 47.7187 116.15 45.3374C115.762 43.806 115.161 42.3368 114.364 40.9729L116.15 35.8124 112.191 31.8541 107.033 33.6395C105.669 32.8422 104.2 32.2412 102.669 31.8541L100.279 27.0833 94.7249 27.0833 92.3436 32.0437C90.8084 32.4297 89.3355 33.031 87.9686 33.8291L82.8124 32.0437 78.854 36.0124 80.4415 41.1708C79.6451 42.5349 79.044 44.0041 78.6561 45.5353L73.6978 47.9166 73.6978 53.4728 78.6561 55.8541C79.0445 57.3851 79.6455 58.8543 80.4415 60.2187ZM77.8645 50.5374 80.4603 49.2874 82.2249 48.4416 82.6978 46.5416C82.9928 45.3797 83.4515 44.266 84.0603 43.2333L84.954 41.6666 84.4249 39.9416 83.5749 37.1791 83.9249 36.8312 86.6165 37.7624 88.404 38.3874 90.0478 37.4499C91.0792 36.8404 92.1926 36.3816 93.354 36.0874L95.254 35.6124 96.0999 33.8479 97.3499 31.252 97.7082 31.252 98.9374 33.7104 99.7915 35.4166 101.65 35.8812C102.812 36.1754 103.925 36.6335 104.958 37.2416L106.6 38.1812 108.387 37.5562 111.081 36.6229 111.358 36.902 110.416 39.6104 109.792 41.3958 110.729 43.0395C111.338 44.072 111.797 45.186 112.091 46.3478L112.564 48.2458 114.329 49.0937 116.925 50.3437 116.925 51.0416 114.329 52.2916 112.564 53.1374 112.091 55.0374C111.717 56.203 111.192 57.3151 110.531 58.3457L109.594 59.9874 110.219 61.7749 111.15 64.4687 110.871 64.7478 108.179 63.8166 106.392 63.1916 104.748 64.1291C103.716 64.7387 102.603 65.1974 101.442 65.4916L99.5811 65.9562 98.7249 67.6707 97.4957 70.1291 97.1394 70.1291 95.8894 67.5312 95.0415 65.7666 93.1436 65.2916C91.9815 64.9982 90.8676 64.5401 89.8353 63.9312L88.1936 62.9937 86.4061 63.6187 83.7124 64.5499 83.4353 64.2707 84.3665 61.577 84.9915 59.7895 84.054 58.1478C83.4457 57.1151 82.987 56.0012 82.6915 54.8395L82.2186 52.9395 80.454 52.0937 77.8582 50.8437Z" stroke="#002060" stroke-width="2.08333" fill="#002060" transform="matrix(1 0 0 1 1458 1324)"/><path d="M53.7499 127.119 53.7499 179.841 119.583 179.841 119.583 154.841 129.791 154.841C136.361 154.83 142.657 152.206 147.291 147.55 151.862 142.79 154.402 136.44 154.375 129.841L154.375 117.341 163.541 117.341C168.958 116.716 173.75 110.466 168.75 102.758L154.375 77.7582 154.375 76.7166C155.728 42.1412 128.796 13.0156 94.2205 11.6626 59.6453 10.3096 30.5197 37.2416 29.1666 71.8168 29.1027 73.4495 29.1027 75.0838 29.1666 76.7166 29.0947 96.4219 38.1772 115.044 53.7499 127.119ZM61.9082 24.0125C89.679 7.51686 125.564 16.6573 142.06 44.4281 147.817 54.1212 150.651 65.2716 150.219 76.5374L150.219 78.8416 150.773 79.8061 165.148 104.806 165.204 104.902 165.264 104.996C166.617 106.628 167.017 108.85 166.318 110.852 165.728 112.06 164.594 112.913 163.269 113.144L150.208 113.144 150.208 129.81C150.23 135.305 148.129 140.596 144.344 144.579 140.502 148.472 135.261 150.665 129.791 150.669L115.416 150.669 115.416 175.668 57.9166 175.668 57.9166 125.075 56.2999 123.825C41.7126 112.553 33.2193 95.1215 33.3333 76.6874L33.3333 76.6124 33.3333 76.5374C32.4874 55.1089 43.4595 34.9422 61.9103 24.0125Z" stroke="#002060" stroke-width="2.08333" fill="#002060" transform="matrix(1 0 0 1 1458 1324)"/></g></g></g><path d="M1144.5 868.5 1343.96 519.5 1752.04 519.5 1951.5 868.5 1752.04 1217.5 1343.96 1217.5 1144.5 868.5Z" stroke="#002060" stroke-width="11.4583" stroke-miterlimit="8" fill="#FFFFFF" fill-rule="evenodd"/><text font-family="Lato Black,Lato Black_MSFontService,sans-serif" font-weight="900" font-size="73" transform="matrix(1 0 0 1 1526.31 853)">6</text><text font-family="Lato Black,Lato Black_MSFontService,sans-serif" font-weight="900" font-size="73" transform="matrix(1 0 0 1 1402.56 963)">Gestão e </text><text font-family="Lato Black,Lato Black_MSFontService,sans-serif" font-weight="900" font-size="73" transform="matrix(1 0 0 1 1393.96 1042)">avaliação</text><g><g><g><path d="M169.917 167.906 33.1667 167.906 33.1667 31.0938 29.0208 31.0938 29.0208 172.052 169.917 172.052 169.917 167.906Z" stroke="#002060" stroke-width="2.07292" fill="#002060" transform="matrix(1 0 0 1.00503 1448 571)"/><path d="M169.979 31.0938 136.813 31.0938 136.813 155.469 169.979 155.469ZM165.833 151.323 140.958 151.323 140.958 35.2396 165.833 35.2396Z" stroke="#002060" stroke-width="2.07292" fill="#002060" transform="matrix(1 0 0 1.00503 1448 571)"/><path d="M91.2083 155.469 124.375 155.469 124.375 76.6979 91.2083 76.6979ZM95.3542 80.8438 120.229 80.8438 120.229 151.323 95.3542 151.323Z" stroke="#002060" stroke-width="2.07292" fill="#002060" transform="matrix(1 0 0 1.00503 1448 571)"/><path d="M45.6042 155.469 78.7708 155.469 78.7708 114.01 45.6042 114.01ZM49.75 118.156 74.625 118.156 74.625 151.323 49.75 151.323Z" stroke="#002060" stroke-width="2.07292" fill="#002060" transform="matrix(1 0 0 1.00503 1448 571)"/><path d="M47.0697 98.8927 107.763 38.1997C107.771 38.1916 107.784 38.1918 107.792 38.1999 107.796 38.2039 107.798 38.2088 107.798 38.2142L107.798 58.0417 111.944 58.0417 111.944 31.0938 85.0518 31.0938 85.0518 35.2396 104.811 35.2396C104.822 35.2398 104.831 35.2491 104.831 35.2605 104.831 35.2659 104.829 35.2711 104.825 35.2748L44.1386 95.9615Z" stroke="#002060" stroke-width="2.07292" fill="#002060" transform="matrix(1 0 0 1.00503 1448 571)"/></g></g></g><path d="M2463.5 1621.5 2662.96 1272.5 3071.04 1272.5 3270.5 1621.5 3071.04 1970.5 2662.96 1970.5 2463.5 1621.5Z" stroke="#002060" stroke-width="11.4583" stroke-miterlimit="8" fill="#FFFFFF" fill-rule="evenodd"/><text font-family="Lato Black,Lato Black_MSFontService,sans-serif" font-weight="900" font-size="73" transform="matrix(1 0 0 1 2845.25 1646)">3</text><text font-family="Lato Black,Lato Black_MSFontService,sans-serif" font-weight="900" font-size="73" transform="matrix(1 0 0 1 2714.35 1756)">Extensão</text><g><g><g><path d="M99.5 22.8021 99.5 22.8021C57.2125 22.8021 22.8021 57.2125 22.8021 99.5 22.8021 141.788 57.2125 176.198 99.5 176.198 141.788 176.198 176.198 141.788 176.198 99.5 176.198 57.2125 141.788 22.8021 99.5 22.8021ZM172.052 97.4271 138.885 97.4271C138.264 69.4427 126.033 43.324 106.133 27.3625 142.617 30.6792 170.808 60.7365 172.052 97.4271ZM97.4271 97.4271 64.2604 97.4271C64.8823 69.65 77.3198 43.9458 97.4271 29.0208L97.4271 97.4271ZM97.4271 101.573 97.4271 169.979C77.3198 154.847 64.8823 129.143 64.2604 101.573L97.4271 101.573ZM101.573 101.573 134.74 101.573C134.118 129.35 121.68 155.054 101.573 169.979L101.573 101.573ZM101.573 97.4271 101.573 29.0208C121.68 44.1531 134.118 69.8573 134.74 97.4271L101.573 97.4271ZM92.8667 27.3625C72.9667 43.324 60.7365 69.4427 60.1146 97.4271L26.9479 97.4271C28.1917 60.7365 56.3833 30.6792 92.8667 27.3625ZM26.9479 101.573 60.1146 101.573C60.7365 129.557 72.9667 155.676 92.8667 171.638 56.3833 168.321 28.1917 138.264 26.9479 101.573ZM106.133 171.638C126.033 155.676 138.264 129.557 138.885 101.573L172.052 101.573C171.016 137.849 143.446 167.699 107.584 171.638 106.963 171.638 106.133 171.638 106.133 171.638Z" stroke="#002060" stroke-width="2.07292" fill="#002060" transform="matrix(1 0 0 1.00502 2761 1325)"/></g></g></g><path d="M1809.5 1987.5 2008.96 1638.5 2417.04 1638.5 2616.5 1987.5 2417.04 2336.5 2008.96 2336.5 1809.5 1987.5Z" stroke="#002060" stroke-width="11.4583" stroke-miterlimit="8" fill="#FFFFFF" fill-rule="evenodd"/><text font-family="Lato Black,Lato Black_MSFontService,sans-serif" font-weight="900" font-size="73" transform="matrix(1 0 0 1 2191.56 1972)">4</text><text font-family="Lato Black,Lato Black_MSFontService,sans-serif" font-weight="900" font-size="73" transform="matrix(1 0 0 1 2034.3 2082)">Inovação e </text><text font-family="Lato Black,Lato Black_MSFontService,sans-serif" font-weight="900" font-size="73" transform="matrix(1 0 0 1 2040.03 2161)">tecnologia</text><g><g><g><path d="M2240.23 1817.55C2242.44 1813.05 2247.65 1802.97 2252.42 1797.76 2256.29 1793.4 2259.35 1788.38 2261.46 1782.94 2263.67 1777.18 2264.89 1771.08 2265.08 1764.91L2265.08 1763.12C2265.08 1734.36 2241.76 1711.04 2213 1711.04 2184.24 1711.04 2160.92 1734.36 2160.92 1763.12L2160.92 1764.92C2161.11 1771.09 2162.33 1777.18 2164.54 1782.94 2166.65 1788.38 2169.71 1793.4 2173.58 1797.76 2178.35 1802.95 2183.56 1813.06 2185.77 1817.55 2186.44 1818.91 2187.82 1819.76 2189.34 1819.76L2236.67 1819.76C2238.18 1819.76 2239.56 1818.9 2240.23 1817.55ZM2236.54 1815.59 2189.46 1815.59C2186.77 1810.13 2181.59 1800.3 2176.71 1794.99 2173.17 1791 2170.36 1786.42 2168.44 1781.45 2166.4 1776.14 2165.27 1770.53 2165.08 1764.84L2165.08 1763.2C2165.06 1736.73 2186.5 1715.26 2212.96 1715.24 2239.43 1715.22 2260.9 1736.66 2260.92 1763.12L2260.92 1764.85C2260.74 1770.53 2259.61 1776.13 2257.57 1781.44 2255.66 1786.39 2252.87 1790.97 2249.34 1794.95 2244.39 1800.35 2239.21 1810.17 2236.54 1815.59Z" stroke="#002060" stroke-width="2.08333" fill="#002060"/><path d="M2236.25 1832.38 2190.41 1832.38C2189.26 1832.38 2188.33 1833.31 2188.33 1834.46 2188.33 1835.61 2189.26 1836.54 2190.41 1836.54L2236.25 1836.54C2237.4 1836.54 2238.33 1835.61 2238.33 1834.46 2238.33 1833.31 2237.4 1832.38 2236.25 1832.38Z" stroke="#002060" stroke-width="2.08333" fill="#002060"/><path d="M2238.33 1851.4C2238.33 1850.25 2237.4 1849.31 2236.25 1849.31L2190.41 1849.31C2189.26 1849.31 2188.33 1850.25 2188.33 1851.4 2188.33 1852.55 2189.26 1853.48 2190.41 1853.48L2236.25 1853.48C2237.4 1853.48 2238.33 1852.55 2238.33 1851.4Z" stroke="#002060" stroke-width="2.08333" fill="#002060"/><path d="M2225.08 1868.08C2225.18 1866.94 2224.32 1865.93 2223.17 1865.84 2223.12 1865.84 2223.06 1865.83 2223 1865.83L2203.1 1865.83C2201.95 1865.83 2201.01 1866.76 2201.01 1867.91 2201.01 1867.97 2201.01 1868.03 2201.01 1868.09 2201.54 1874.73 2207.35 1879.69 2214 1879.17 2219.91 1878.7 2224.61 1874 2225.08 1868.09ZM2213.06 1875.04C2209.82 1875.01 2206.91 1873.02 2205.71 1870L2220.42 1870C2219.22 1873.02 2216.31 1875.01 2213.06 1875.04Z" stroke="#002060" stroke-width="2.08333" fill="#002060"/></g></g></g><path d="M2452.5 873.5 2651.71 524.5 3059.29 524.5 3258.5 873.5 3059.29 1222.5 2651.71 1222.5 2452.5 873.5Z" stroke="#002060" stroke-width="11.4583" stroke-miterlimit="8" fill="#FFFFFF" fill-rule="evenodd"/><text font-family="Lato Black,Lato Black_MSFontService,sans-serif" font-weight="900" font-size="73" transform="matrix(1 0 0 1 2833.88 897)">2</text><text font-family="Lato Black,Lato Black_MSFontService,sans-serif" font-weight="900" font-size="73" transform="matrix(1 0 0 1 2708.7 1007)">Pesquisa</text><g><g><g><path d="M177.24 224 146.667 154.109 146.667 105.293C146.657 101.755 148.064 98.361 150.573 95.8666L156.552 89.8852C157.593 88.8436 157.593 87.1554 156.551 86.114 156.051 85.6143 155.373 85.3335 154.667 85.3332L101.333 85.3332C99.8604 85.3335 98.6668 86.5276 98.6671 88.0004 98.6674 88.7074 98.9482 89.3852 99.4479 89.8852L105.427 95.8666C107.935 98.361 109.342 101.755 109.333 105.293L109.333 154.109 78.7599 224C75.8143 230.749 78.8978 238.608 85.6468 241.553 87.3276 242.287 89.1418 242.666 90.9759 242.666L165.024 242.666C172.388 242.664 178.355 236.693 178.353 229.329 178.352 227.495 177.973 225.681 177.24 224ZM109.197 92.0959 107.816 90.7119C107.792 90.6879 107.8 90.6666 107.835 90.6666L148.165 90.6666C148.2 90.6666 148.208 90.6879 148.184 90.7119L146.8 92.0959C143.3 95.5962 141.333 100.343 141.333 105.293L141.333 120 114.667 120 114.667 105.307C114.666 100.352 112.699 95.6004 109.197 92.0959ZM171.733 233.712C170.269 235.993 167.734 237.361 165.024 237.333L90.9759 237.333C86.5575 237.332 82.9764 233.75 82.9772 229.332 82.9775 228.231 83.205 227.142 83.6452 226.133L114.443 155.733C114.591 155.397 114.667 155.034 114.667 154.667L114.667 125.333 141.333 125.333 141.333 154.667C141.333 155.034 141.409 155.397 141.557 155.733L172.354 226.133C173.461 228.599 173.226 231.459 171.733 233.712Z" stroke="#002060" stroke-width="2.62919" fill="#002060" transform="matrix(1 0 0 1.00391 2721 542)"/><path d="M133.333 26.6666C137.752 26.6666 141.333 23.0849 141.333 18.6666 141.333 14.2484 137.752 10.6667 133.333 10.6667 128.915 10.6667 125.333 14.2484 125.333 18.6666 125.333 23.0849 128.915 26.6666 133.333 26.6666ZM133.333 16C134.806 16 136 17.1939 136 18.6666 136 20.1394 134.806 21.3333 133.333 21.3333 131.86 21.3333 130.667 20.1394 130.667 18.6666 130.667 17.1939 131.86 16 133.333 16Z" stroke="#002060" stroke-width="2.62919" fill="#002060" transform="matrix(1 0 0 1.00391 2721 542)"/><path d="M138.667 42.6666C138.667 47.085 142.248 50.6666 146.667 50.6666 151.085 50.6666 154.667 47.085 154.667 42.6666 154.667 38.2482 151.085 34.6666 146.667 34.6666 142.248 34.6666 138.667 38.2482 138.667 42.6666ZM146.667 40C148.139 40 149.333 41.1938 149.333 42.6666 149.333 44.1394 148.139 45.3333 146.667 45.3333 145.194 45.3333 144 44.1394 144 42.6666 144 41.1938 145.194 40 146.667 40Z" stroke="#002060" stroke-width="2.62919" fill="#002060" transform="matrix(1 0 0 1.00391 2721 542)"/><path d="M117.333 45.3333C121.752 45.3333 125.333 41.7517 125.333 37.3333 125.333 32.9149 121.752 29.3333 117.333 29.3333 112.915 29.3333 109.333 32.9149 109.333 37.3333 109.333 41.7517 112.915 45.3333 117.333 45.3333ZM117.333 34.6666C118.806 34.6666 120 35.8605 120 37.3333 120 38.8061 118.806 40 117.333 40 115.86 40 114.667 38.8061 114.667 37.3333 114.667 35.8605 115.86 34.6666 117.333 34.6666Z" stroke="#002060" stroke-width="2.62919" fill="#002060" transform="matrix(1 0 0 1.00391 2721 542)"/><path d="M112 66.6666C112 72.5575 116.776 77.3333 122.667 77.3333 128.557 77.3333 133.333 72.5575 133.333 66.6666 133.333 60.7757 128.557 55.9999 122.667 55.9999 116.776 55.9999 112 60.7757 112 66.6666ZM128 66.6666C128 69.6122 125.612 71.9999 122.667 71.9999 119.721 71.9999 117.333 69.6122 117.333 66.6666 117.333 63.721 119.721 61.3333 122.667 61.3333 125.612 61.3333 128 63.721 128 66.6666Z" stroke="#002060" stroke-width="2.62919" fill="#002060" transform="matrix(1 0 0 1.00391 2721 542)"/></g></g></g><path d="M1802.5 498.5 2001.96 149.5 2410.04 149.5 2609.5 498.5 2410.04 847.5 2001.96 847.5 1802.5 498.5Z" stroke="#002060" stroke-width="11.4583" stroke-miterlimit="8" fill="#FFFFFF" fill-rule="evenodd"/><text font-family="Lato Black,Lato Black_MSFontService,sans-serif" font-weight="900" font-size="73" transform="matrix(1 0 0 1 2184.22 523)">1</text><text font-family="Lato Black,Lato Black_MSFontService,sans-serif" font-weight="900" font-size="73" transform="matrix(1 0 0 1 2095.42 633)">Ensino</text><g><g><g><path d="M241.436 104.626 126.516 63.5135 11.5958 104.626 34.2604 112.582 34.2604 158.389C34.2604 159.844 35.4403 161.024 36.8958 161.024 38.3514 161.024 39.5312 159.844 39.5312 158.389L39.5312 114.43 58.0793 120.939 58.0793 158.889C58.0793 174.333 89.4197 187.378 126.516 187.378 163.612 187.378 194.955 174.333 194.955 158.895L194.955 120.939ZM126.516 69.1138 225.592 104.558C225.631 104.571 225.631 104.592 225.592 104.605L126.516 139.366 27.4505 104.605C27.411 104.592 27.411 104.571 27.4505 104.558ZM189.684 158.895C189.684 169.629 162.091 182.107 126.516 182.107 90.9403 182.107 63.3501 169.629 63.3501 158.895L63.3501 122.789 126.516 144.948 189.684 122.784Z" stroke="#002060" stroke-width="2.63542" fill="#002060" transform="matrix(1 0 0 1.01581 2079 198)"/></g></g></g><path d="M1797.5 1238 1996.71 889.5 2404.29 889.5 2603.5 1238 2404.29 1586.5 1996.71 1586.5 1797.5 1238Z" stroke="#002060" stroke-width="11.4583" stroke-miterlimit="8" fill="#FFFFFF" fill-rule="evenodd"/><text fill="#002060" font-family="Lato Black,Lato Black_MSFontService,sans-serif" font-weight="900" font-size="92" transform="matrix(1 0 0 1 1971.06 1025)">Dimensões</text><text fill="#002060" font-family="Lato Black,Lato Black_MSFontService,sans-serif" font-weight="900" font-size="92" transform="matrix(1 0 0 1 2041.53 1163)">PET/EQ</text><path d="M2605 1237 2405.04 1586 1998.96 1586 1799 1237Z" stroke="#002060" stroke-width="8.02083" stroke-miterlimit="8" fill="#002060" fill-rule="evenodd"/><text fill="#FFFFFF" font-family="Lato Black,Lato Black_MSFontService,sans-serif" font-weight="900" font-size="83" transform="matrix(1 0 0 1 2011.23 1375)">Gestão do </text><text fill="#FFFFFF" font-family="Lato Black,Lato Black_MSFontService,sans-serif" font-weight="900" font-size="83" transform="matrix(1 0 0 1 2018.1 1464)">Programa  </text><text fill="#FFFFFF" font-family="Lato Black,Lato Black_MSFontService,sans-serif" font-weight="900" font-size="83" transform="matrix(1 0 0 1 2063.66 1553)">Tutoria</text></g></svg>