<?xml version="1.0" encoding="UTF-8" standalone="no"?>
<!-- Created with Inkscape (http://www.inkscape.org/) -->

<svg
   version="1.1"
   id="svg1"
   width="344.63077"
   height="554.10791"
   viewBox="0 0 344.63077 554.10791"
   sodipodi:docname="logo vetorizado.svg"
   xml:space="preserve"
   inkscape:version="1.3.2 (091e20e, 2023-11-25, custom)"
   inkscape:export-filename="logo vetorizado.svg"
   inkscape:export-xdpi="96"
   inkscape:export-ydpi="96"
   xmlns:inkscape="http://www.inkscape.org/namespaces/inkscape"
   xmlns:sodipodi="http://sodipodi.sourceforge.net/DTD/sodipodi-0.dtd"
   xmlns="http://www.w3.org/2000/svg"
   xmlns:svg="http://www.w3.org/2000/svg"><defs
     id="defs1"><inkscape:path-effect
       effect="bspline"
       id="path-effect29"
       is_visible="true"
       lpeversion="1.3"
       weight="33.333333"
       steps="2"
       helper_size="0"
       apply_no_weight="true"
       apply_with_weight="true"
       only_selected="false"
       uniform="false" /><inkscape:path-effect
       effect="bspline"
       id="path-effect28"
       is_visible="true"
       lpeversion="1.3"
       weight="33.333333"
       steps="2"
       helper_size="0"
       apply_no_weight="true"
       apply_with_weight="true"
       only_selected="false"
       uniform="false" /></defs><sodipodi:namedview
     id="namedview1"
     pagecolor="#ffffff"
     bordercolor="#000000"
     borderopacity="0.25"
     inkscape:showpageshadow="2"
     inkscape:pageopacity="0.0"
     inkscape:pagecheckerboard="0"
     inkscape:deskcolor="#d1d1d1"
     inkscape:zoom="1"
     inkscape:cx="496"
     inkscape:cy="892.5"
     inkscape:window-width="1920"
     inkscape:window-height="1017"
     inkscape:window-x="-8"
     inkscape:window-y="-8"
     inkscape:window-maximized="1"
     inkscape:current-layer="g2"
     inkscape:export-bgcolor="#00000000" /><g
     inkscape:groupmode="layer"
     inkscape:label="Image"
     id="g1"
     transform="translate(-446.50864,-535.77563)"><path
       style="fill:#005556;fill-opacity:1;fill-rule:nonzero;stroke:none;stroke-opacity:1"
       d="m 196.6128,1042.6437 c -18.70136,5.1305 -37.40276,10.2609 -56.10415,15.3914"
       id="path28"
       inkscape:path-effect="#path-effect28"
       inkscape:original-d="m 196.6128,1042.6437 c -18.70138,5.1304 -37.40277,10.2609 -56.10415,15.3914"
       transform="translate(306)" /><path
       style="fill:#005556;fill-opacity:1;fill-rule:nonzero;stroke:none;stroke-opacity:1"
       d="m 152.92107,1077.3985 c 0,0 77.95003,-24.8249 77.95003,-24.8249"
       id="path29"
       inkscape:path-effect="#path-effect29"
       inkscape:original-d="m 152.92107,1077.3985 77.95003,-24.8249"
       transform="translate(306)" /><g
       id="g8"><g
         id="g7"
         transform="matrix(2.8863247,0,0,2.8863247,-1178.0035,-1745.7011)"><g
           id="g2"
           transform="matrix(1.1563804,0,0,1.1563804,-139.03072,-248.51208)"><g
             id="g26"
             transform="matrix(0.34646137,0,0,0.34646137,499.81336,604.81799)"
             style="fill:#ffffff;fill-opacity:1"><path
               style="fill:#ffffff;fill-opacity:1;stroke:none"
               d="m 404.4424,967.9313 c 0.36252,12.5827 0.32,25.1722 0.32,37.76 0,8.749 0.48761,17.7238 -1.76356,26.24 -1.53335,5.8007 -4.60701,11.1707 -7.00883,16.64 -4.85222,11.0493 -10.0288,21.9498 -14.97158,32.96 -16.16725,36.0132 -32.95607,71.7467 -48.93027,107.84 -4.02445,9.0932 -8.15079,18.1666 -12.30901,27.2 -2.88299,6.2632 -6.10366,12.4343 -7.64378,19.2 -2.99521,13.1578 -2.01608,27.7478 3.87509,40 7.26166,15.1026 21.94688,26.7042 37.87194,31.3883 8.55309,2.5158 17.09586,2.5317 25.92,2.5317 h 24.64 90.23999 c 12.34075,0 25.22319,1.0446 37.44,-0.7847 15.11346,-2.263 29.94076,-11.1182 39.214,-23.2214 3.11678,-4.0679 6.00381,-8.6705 7.92069,-13.4339 5.47664,-13.609 5.17992,-28.7883 0.47027,-42.56 -1.46672,-4.2889 -3.71306,-8.39 -5.6539,-12.48 -2.65114,-5.5866 -5.15848,-11.2417 -7.76606,-16.8504 -13.60621,-29.2662 -26.70469,-58.7606 -40.12746,-88.1096 -10.56234,-23.0945 -21.4824,-46.0903 -31.47306,-69.44 -2.1793,-5.0933 -4.66032,-10.1766 -5.62014,-15.68 -0.94436,-5.4145 -0.80434,-10.8443 -0.80434,-16.32 v -21.12 -14.08 c 0,-1.8863 -0.46363,-4.5143 0.21332,-6.2998 0.70856,-1.8688 4.91987,-1.0563 6.50668,-1.0606 5.42123,-0.015 11.72811,-2.6827 10.68797,-9.2796 -1.40722,-8.9249 -11.74597,-7.36 -18.36797,-7.36 -2.02547,0 -4.05498,-0.037 -6.08,0.01 -1.21011,0.026 -2.36773,0.1943 -3.52,0.575 -6.63445,2.192 -6.72,8.6325 -6.72,14.4577 v 9.92 30.4 c 0,6.9202 -0.31361,13.9586 0.80424,20.8 1.33514,8.1712 4.66561,15.8421 8.0125,23.36 21.08973,47.3724 42.91715,94.4077 64.03889,141.76 5.16535,11.5801 10.53195,23.0978 15.94351,34.56 3.14524,6.6619 5.83639,12.7808 6.65217,20.16 0.18031,1.6311 0.58846,3.1419 0.43338,4.8 -1.6757,17.916 -13.83379,32.5797 -30.92469,38.2277 -7.54318,2.4927 -15.20092,2.4123 -23.04,2.4123 h -24.96 -91.51999 -18.56 c -5.15123,0 -10.28205,0.1255 -15.36,-0.8653 -6.3819,-1.2452 -12.37248,-4.0725 -17.59729,-7.9198 -3.67318,-2.7048 -6.73829,-5.875 -9.55602,-9.4549 -2.08273,-2.6461 -3.79679,-5.821 -5.01768,-8.96 -2.10014,-5.3995 -3.40215,-11.7838 -2.97314,-17.6 0.58969,-7.9946 3.68224,-14.8985 6.94488,-22.08 3.09434,-6.8109 6.28656,-13.607 9.23881,-20.48 17.36684,-40.431 36.686,-80.0243 54.37365,-120.32 4.88926,-11.1386 10.09011,-22.1398 14.97575,-33.28 3.19383,-7.2825 6.64566,-14.4891 8.00772,-22.4 1.27191,-7.3873 1.12332,-14.9191 1.12332,-22.4 v -26.88 -14.08 c -2e-5,-2.7225 0.24574,-6.0396 -0.67286,-8.64 -2.97873,-8.4322 -14.80644,-6.08 -21.72714,-6.08 -3.39466,0 -6.95953,-0.079 -9.76611,2.1682 -4.11216,3.2925 -3.36706,10.6046 1.13358,13.1906 3.53816,2.033 9.53843,1.716 13.43253,0.9612 z"
               id="path25"
               inkscape:label="path25" /></g><ellipse
             style="fill:#bf0a25;fill-opacity:1;stroke:none;stroke-width:0.438842;stroke-opacity:1"
             id="path26"
             cx="654.86383"
             cy="930.45081"
             rx="7.5977993"
             ry="7.762969"
             inkscape:highlight-color="#f35235" /><ellipse
             style="display:inline;fill:#de790f;fill-opacity:1;stroke:none;stroke-width:0.366757;stroke-opacity:1"
             id="path26-2"
             cx="671.31738"
             cy="915.5426"
             rx="6.3497605"
             ry="6.4877992"
             inkscape:highlight-color="#f35235"
             inkscape:label="path26-2" /><ellipse
             style="fill:#f8af00;fill-opacity:1;stroke:none;stroke-width:0.274905;stroke-opacity:1"
             id="path26-4"
             cx="658.35217"
             cy="903.31787"
             rx="4.7595186"
             ry="4.8629861"
             inkscape:highlight-color="#f35235" /><path
             style="fill:#236489;fill-opacity:1;stroke:none;stroke-width:0.341373"
             d="m 629.33854,1005.1196 c -1.94132,3.8456 -3.2623,7.3834 -5.13587,11.2587 -1.73119,3.5808 -3.22761,8.0423 -5.05992,12.1544 -1.50954,3.3878 -3.12569,6.6824 -3.05755,9.9412 0.0433,2.0701 0.59862,4.1256 1.89818,6.1814 2.55849,4.0472 7.03162,5.579 11.93708,6.0372 4.20597,0.3928 11.42869,0.075 14.16299,0.1018 l 25.77081,0.2507 c 6.13421,0.06 12.70766,0.7706 17.97174,-2.7965 5.00834,-3.3939 7.39613,-9.1851 6.23871,-14.8345 -0.63819,-3.115 -2.46126,-6.1349 -3.92002,-8.974 -1.93457,-3.7649 -3.70834,-7.6117 -5.58705,-11.402 l -4.18211,-8.4461 c -0.49727,-1.0041 -0.95067,-2.7522 -1.7974,-3.5258 -0.48118,-0.4397 -2.09424,-0.1693 -2.73329,-0.1693 h -7.57301 -26.22291 -7.75491 c -3.01198,-0.4091 -3.85289,2.021 -4.95547,4.2228 z"
             id="path63"
             sodipodi:nodetypes="sssssssssssccsscccs" /><path
             style="fill:#f8af00;fill-opacity:1;stroke:none;stroke-width:0.0822087;image-rendering:optimizeSpeed"
             d="m 674.06053,1000.6009 c -0.96104,0.2222 -1.18368,1.1021 -1.42146,1.9295 -0.42682,1.4853 -0.58484,4.1317 -2.19572,4.763 -1.1723,0.4595 -2.36003,0.8823 -3.53496,1.336 -0.5401,0.2085 -1.15297,0.5067 -1.72637,0.2736 -1.18546,-0.4822 -2.30257,-1.802 -3.28834,-2.6115 -0.53355,-0.4381 -1.16912,-0.9167 -1.89079,-0.6184 -0.62979,0.2603 -1.19325,0.8339 -1.72638,1.2493 -1.10187,0.8585 -2.19398,1.7283 -3.28834,2.596 -0.58399,0.4631 -1.3948,0.9547 -1.29979,1.8083 0.14229,1.2784 1.17463,2.7939 1.73209,3.946 0.23329,0.4822 0.65673,1.0833 0.60165,1.6442 -0.0413,0.4206 -0.35937,0.8039 -0.57552,1.1509 -0.66906,1.0743 -1.56229,3.2509 -2.76026,3.7727 -1.2965,0.5646 -3.1287,0.3143 -4.52146,0.4787 -0.52184,0.062 -1.0253,0.01 -1.4762,0.3361 -0.61553,0.4514 -0.67121,1.2991 -0.80921,1.9892 -0.35695,1.7849 -1.08749,3.8538 -1.07861,5.6724 0.004,0.8852 0.77634,1.3157 1.47322,1.6645 1.23244,0.6166 2.79028,1.2007 3.86253,2.067 0.985,0.7957 0.89183,2.9817 1.04682,4.1605 0.0689,0.5243 0.2842,1.2174 0.0934,1.7264 -0.698,1.8623 -3.39851,2.6135 -4.16193,4.4392 -0.30761,0.7357 0.20424,1.5165 0.55669,2.1374 0.87496,1.5414 1.58661,3.3678 2.68078,4.7648 0.74621,0.9528 1.99869,0.5507 2.9916,0.3224 0.90592,-0.2083 1.81085,-0.4121 2.71287,-0.6375 0.43937,-0.1098 0.94834,-0.2904 1.39755,-0.1385 0.46811,0.1583 0.81265,0.6119 1.15092,0.9502 0.89436,0.8943 2.86386,2.1504 3.09682,3.4527 0.2164,1.2097 -0.24795,2.8158 -0.41884,4.0283 -0.0916,0.6503 -0.26211,1.3617 0.0807,1.9718 0.35878,0.6383 1.21182,0.8785 1.84494,1.152 1.48847,0.6431 2.96634,1.5588 4.52146,2.0191 0.98984,0.293 1.61282,-0.3682 2.14897,-1.1147 0.73044,-1.0171 1.63126,-3.0195 2.78354,-3.5702 0.85621,-0.4092 2.28988,0.047 3.20612,0.11 2.01261,0.1379 4.00094,-0.1817 6.00122,-0.1806 0.79034,0 1.16046,0.589 1.56406,1.1745 0.79094,1.1474 2.08516,4.0284 3.77949,3.6136 1.65855,-0.406 3.2906,-1.4558 4.85029,-2.1454 0.64134,-0.2835 1.46299,-0.529 1.76475,-1.2216 0.24296,-0.5577 0.0798,-1.2309 -0.004,-1.8085 -0.17104,-1.1812 -0.67264,-2.8576 -0.4021,-4.0283 0.2729,-1.1809 1.92354,-2.2959 2.75158,-3.1239 0.46024,-0.4602 0.92353,-1.0696 1.56196,-1.2822 0.98987,-0.3296 2.6233,0.4269 3.61717,0.6418 1.01672,0.2197 2.44267,0.8324 3.2613,-0.103 1.18938,-1.359 1.93017,-3.4329 2.81063,-5.0112 0.33707,-0.6041 0.82091,-1.3477 0.46719,-2.0552 -0.91014,-1.8203 -4.32941,-2.9877 -4.06011,-5.2613 0.12668,-1.0697 0.27848,-2.1401 0.43285,-3.2062 0.0787,-0.5431 0.0899,-1.1005 0.44136,-1.5542 1.16903,-1.5093 3.75517,-1.5794 5.08721,-2.912 0.59506,-0.5954 0.40372,-1.2957 0.25723,-2.0282 -0.27915,-1.396 -0.58206,-2.79 -0.82621,-4.1927 -0.11912,-0.6843 -0.17493,-1.6446 -0.60826,-2.2118 -0.45326,-0.5935 -1.17803,-0.5344 -1.83743,-0.5972 -1.34594,-0.1281 -2.88751,-0.031 -4.19263,-0.3912 -0.64821,-0.1787 -0.95269,-0.7052 -1.28915,-1.239 -0.69584,-1.1041 -1.61509,-2.2489 -2.1201,-3.4528 -0.28047,-0.6686 0.17777,-1.3062 0.47004,-1.8908 0.57349,-1.147 1.54187,-2.6005 1.76126,-3.8637 0.15388,-0.8861 -0.51408,-1.3349 -1.12389,-1.8301 -1.06184,-0.8623 -2.14786,-1.6953 -3.20613,-2.5619 -0.57471,-0.4707 -1.19832,-1.1399 -1.8908,-1.4261 -0.83219,-0.344 -1.52362,0.3255 -2.13741,0.7938 -1.3311,1.0155 -2.81021,2.9622 -4.60368,2.307 -1.12837,-0.4123 -2.24533,-0.8552 -3.37054,-1.2761 -0.54033,-0.2021 -1.14861,-0.3393 -1.4802,-0.8582 -0.68767,-1.0762 -0.82617,-2.8017 -1.17432,-4.027 -0.16446,-0.5788 -0.25479,-1.1999 -0.72377,-1.6257 -0.56012,-0.5085 -1.34893,-0.4295 -2.04747,-0.4295 -1.7387,0 -3.89764,-0.3477 -5.59017,0.043 m 2.21963,18.2303 c 1.51039,-0.1783 3.12403,0 4.60367,0.3056 10.10729,2.0934 14.56986,14.6104 8.67895,22.8537 -0.93218,1.3044 -2.09075,2.4404 -3.41761,3.3422 -2.14002,1.4545 -4.51171,2.2505 -7.06993,2.5533 -1.69699,0.2008 -3.60254,0.073 -5.26133,-0.3361 -9.58675,-2.3659 -13.92747,-13.8153 -8.66582,-22.0834 0.99022,-1.5559 2.30447,-2.9623 3.81552,-4.0252 2.21479,-1.5579 4.65519,-2.296 7.31655,-2.6101 z"
             id="path17" /></g></g></g></g></svg>
