<?xml version="1.0" encoding="UTF-8"?>
<svg width="256" height="256" viewBox="0 0 256 256" xmlns="http://www.w3.org/2000/svg" role="img" aria-label="SharePoint">
  <defs>
    <linearGradient id="g1" x1="0" y1="0" x2="1" y2="1">
      <stop offset="0%" stop-color="#37C6D0"/>
      <stop offset="100%" stop-color="#1A9AA6"/>
    </linearGradient>
    <linearGradient id="g2" x1="0" y1="0" x2="1" y2="1">
      <stop offset="0%" stop-color="#0078D4"/>
      <stop offset="100%" stop-color="#004E8C"/>
    </linearGradient>
    <filter id="s" x="-20%" y="-20%" width="140%" height="140%">
      <feDropShadow dx="0" dy="2" stdDeviation="3" flood-color="#000" flood-opacity="0.15"/>
    </filter>
  </defs>

  <!-- círculos de fundo (estilo SharePoint moderno) -->
  <circle cx="88" cy="88" r="56" fill="url(#g1)"/>
  <circle cx="168" cy="176" r="64" fill="#28B0C8" opacity="0.85"/>

  <!-- azulejo principal com 'S' -->
  <rect x="64" y="96" rx="28" ry="28" width="128" height="128" fill="url(#g2)" filter="url(#s)"/>

  <!-- letra S -->
  <path fill="#FFFFFF" d="M148.8,136c-8.7,0-15.8,1.9-20.9,5.8c-5,3.7-7.6,8.7-7.6,14.8c0,6.1,2.3,10.7,6.9,13.8
    c4.7,3.1,11.8,5.2,21.3,6.4c7.1,0.9,12,2.1,14.6,3.7c2.6,1.6,3.9,3.9,3.9,6.9c0,3.5-1.6,6.2-4.9,8.1c-3.4,1.9-8.3,2.9-14.6,2.9
    c-6.5,0-11.9-1.1-16-3.3c-4.1-2.2-6.8-5.4-8.0-9.7l-0.3-1.1h-15.9l0.1,1.2c0.6,8.3,4.7,14.7,12.3,19.1c7.5,4.3,17.6,6.5,30.1,6.5
    c11.8,0,21.3-2.3,28.3-6.8c6.9-4.5,10.4-10.5,10.4-17.8c0-6.6-2.4-11.7-7.2-15.2c-4.8-3.6-12.6-6.1-23.3-7.5
    c-7.7-1-13.1-2.2-16.1-3.6c-3-1.4-4.5-3.6-4.5-6.7c0-3.1,1.5-5.6,4.6-7.5c3.1-1.9,7.6-2.9,13.5-2.9c5.8,0,10.6,1,14.4,3
    c3.7,2,6,4.8,6.7,8.2l0.2,1h15.6l-0.1-1.2c-0.8-7.5-4.8-13.3-12.0-17.4C165.9,138.1,158.1,136,148.8,136z"/>
</svg>
